# AST/ASF file generated using VICON BodyLanguage
# -----------------------------------------------
:version 1.10
:name VICON
:units
  mass 1.0
  length 0.45
  angle deg
:documentation
   .ast/.asf automatically generated from VICON data using
   VICON BodyBuilder and BodyLanguage model FoxedUp or BRILLIANT.MOD
:root
   order TX TY TZ RX RY RZ
   axis XYZ
   position 0 0 0  
   orientation 0 0 0 
:bonedata
  begin
     id 1 
     name lhipjoint
     direction 0.756833 -0.6125 0.228138 
     length 2.53827 
     axis 0 0 0  XYZ
  end
  begin
     id 2 
     name lfemur
     direction 0.34202 -0.939693 0  
     length 6.51821  
     axis 0 0 20  XYZ
    dof rx ry rz
    limits (-160.0 20.0)
           (-70.0 70.0)
           (-60.0 70.0)
  end
  begin
     id 3 
     name ltibia
     direction 0.34202 -0.939693 0   
     length 6.99902   
     axis 0 0 20   XYZ
    dof rx
    limits (-10.0 170.0)
  end
  begin
     id 4 
     name lfoot
     direction 0.0951515 -0.261427 0.960522   
     length 1.92102   
     axis -90 7.62852e-016 20   XYZ
    dof rx rz
    limits (-45.0 90.0)
           (-70.0 20.0)
  end
  begin
     id 5 
     name ltoes
     direction 1.53539e-011 -4.21781e-011 1   
     length 0.964376   
     axis -90 7.62852e-016 20   XYZ
    dof rx
    limits (-90.0 20.0)
  end
  begin
     id 6 
     name rhipjoint
     direction -0.752153 -0.617542 0.230017   
     length 2.51754  
     axis 0 0 0  XYZ 
  end
  begin
     id 7 
     name rfemur
     direction -0.34202 -0.939693 0   
     length 6.82377   
     axis 0 0 -20   XYZ
    dof rx ry rz
    limits (-160.0 20.0)
           (-70.0 70.0)
           (-70.0 60.0)
  end
  begin
     id 8 
     name rtibia
     direction -0.34202 -0.939693 0   
     length 6.98689   
     axis 0 0 -20   XYZ
    dof rx
    limits (-10.0 170.0)
 end
 begin
     id 9 
     name rfoot
     direction -0.0900426 -0.24739 0.964723   
     length 2.03215  
     axis -90 -7.62852e-016 -20   XYZ
    dof rx rz
    limits (-45.0 90.0)
           (-20.0 70.0)
  end
  begin
     id 10 
     name rtoes
     direction -1.53466e-011 -4.22206e-011 1   
     length 1.0197   
     axis -90 -7.62852e-016 -20   XYZ
    dof rx
    limits (-90.0 20.0)
  end
  begin
     id 11 
     name lowerback
     direction 0.0184183 0.995705 -0.0907278   
     length 2.019   
     axis 0 0 0   XYZ
    dof rx ry rz
    limits (-20.0 45.0)
           (-30.0 30.0)
           (-30.0 30.0)
  end
  begin
     id 12 
     name upperback
     direction 0.00281055 0.998777 0.0493607   
     length 1.99623   
     axis 0 0 0   XYZ
    dof rx ry rz
    limits (-20.0 45.0)
           (-30.0 30.0)
           (-30.0 30.0)
  end
  begin
     id 13 
     name thorax
     direction -0.00665507 0.995706 0.092331   
     length 2.02811   
     axis 0 0 0   XYZ
    dof rx ry rz
    limits (-20.0 45.0)
           (-30.0 30.0)
           (-30.0 30.0)
  end
  begin
     id 14 
     name lowerneck
     direction -0.0960965 0.994358 0.0449225   
     length 1.71265   
     axis 0 0 0   XYZ
    dof rx ry rz
    limits (-20.0 45.0)
           (-30.0 30.0)
           (-30.0 30.0)
  end
  begin
     id 15 
     name upperneck
     direction 0.13642 0.985357 -0.102278   
     length 1.73016   
     axis 0 0 0   XYZ
    dof rx ry rz
    limits (-20.0 45.0)
           (-30.0 30.0)
           (-30.0 30.0)
  end
  begin
     id 16
     name head
     direction 0.0556079 0.997632 -0.040479  
     length 1.74275  
     axis 0 0 0   XYZ
    dof rx ry rz
    limits (-20.0 45.0)
           (-30.0 30.0)
           (-30.0 30.0)
  end
  begin
     id 17 
     name lclavicle
     direction 0.90877 0.417247 -0.00652364  
     length 3.25514  
     axis 0 0 0   XYZ
    dof ry rz
    limits (-20.0 10.0)
           (0.0 20.0)
  end
  begin
     id 18 
     name lhumerus
     direction 1 -4.48949e-011 8.31417e-028   
     length 4.84834   
     axis 180 -30 -90   XYZ
    dof rx ry rz
    limits (-60.0 90.0)
           (-90.0 90.0)
           (-90.0 90.0)
  end
  begin
     id 19
     name lradius
     direction 1 -4.48984e-011 3.45616e-027   
     length 2.99713   
     axis 180 -30 -90   XYZ
    dof rx
    limits (-10.0 170.0)
  end
  begin
     id 20
     name lwrist
     direction 1 -4.4891e-011 4.0479e-027   
     length 1.49857   
     axis -1.61768e-015 90 90   XYZ
    dof ry
    limits (-180.0 0.0)
 end
  begin
     id 21 
     name lhand
     direction 1 -4.49025e-011 8.0958e-027   
     length 0.693987   
     axis -5.16581e-015 90 90   XYZ
    dof rx rz
    limits (-90.0 90.0)
           (-45.0 45.0)
  end
  begin
     id 22 
     name lfingers
     direction 1 -4.4888e-011 1.61916e-026   
     length 0.55951   
     axis -1.03316e-014 90 90   XYZ
    dof rx
    limits (0.0 90.0)
  end
  begin
     id 23
     name lthumb
     direction 0.707107 -6.3493e-011 0.707107   
     length 0.803348   
     axis -90 45 2.85299e-015   XYZ
    dof rx rz
    limits (-45.0 45.0)
           (-45.0 45.0)
  end
  begin
     id 24 
     name rclavicle
     direction -0.906655 0.41906 0.0486307   
     length 3.3311  
     axis 0 0 0   XYZ 
    dof ry rz
    limits (-10.0 20.0)
           (-20.0 0.0)
  end
  begin
     id 25 
     name rhumerus
     direction -1 -4.48959e-011 6.37764e-018  
     length 4.93457   
     axis 180 30 90   XYZ
    dof rx ry rz
    limits (-90.0 60.0)
           (-90.0 90.0)
           (-90.0 90.0)
  end
  begin
     id 26 
     name rradius
     direction -1 -4.48957e-011 2.20847e-027   
     length 3.3443   
     axis 180 30 90   XYZ
    dof rx
    limits (-10.0 170.0)
  end
  begin
     id 27 
     name rwrist
     direction -1 -4.49008e-011 4.0479e-027   
     length 1.67215   
     axis -1.61768e-015 -90 -90   XYZ
    dof ry
    limits (-180.0 0.0)
  end
  begin
     id 28
     name rhand
     direction -1 -4.49013e-011 8.0958e-027   
     length 0.677363   
     axis -5.16581e-015 -90 -90   XYZ
    dof rx rz
    limits (-90.0 90.0)
           (-45.0 45.0)
  end
  begin
     id 29
     name rfingers
     direction -1 -4.48832e-011 1.61916e-026   
     length 0.546107   
     axis -1.03316e-014 -90 -90   XYZ
    dof rx
    limits (0.0 90.0)
  end
  begin
     id 30
     name rthumb
     direction -0.707107 -6.34895e-011 0.707107   
     length 0.784104   
     axis -90 -45 -2.85299e-015   XYZ
    dof rx rz
    limits (-45.0 45.0)
           (-45.0 45.0)
  end
:hierarchy
  begin
    root lhipjoint rhipjoint lowerback
    lhipjoint lfemur
    lfemur ltibia
    ltibia lfoot
    lfoot ltoes
    rhipjoint rfemur
    rfemur rtibia
    rtibia rfoot
    rfoot rtoes
    lowerback upperback
    upperback thorax
    thorax lowerneck lclavicle rclavicle
    lowerneck upperneck
    upperneck head
    lclavicle lhumerus
    lhumerus lradius
    lradius lwrist
    lwrist lhand lthumb
    lhand lfingers
    rclavicle rhumerus
    rhumerus rradius
    rradius rwrist
    rwrist rhand rthumb
    rhand rfingers
  end

#!OML:ASF H:\Terrain\Patient Classification 1\junglegym\FridayTest\junglegym.ASF
:FULLY-SPECIFIED
:DEGREES
114
root -13.1356 15.8712 0.218799 99.2962 -84.7189 -139.876
lowerback 18.0096 -1.01184 4.31578
upperback 0.542265 -0.411759 1.32968
thorax -9.56139 -0.398693 -0.894026
lowerneck 5.94985 2.88742 -11.2633
upperneck 36.9822 -0.210034 6.81579
head 11.0171 -2.08018 4.33696
rclavicle -1.799e-014 5.82439e-014
rhumerus 99.6247 -23.0055 -56.4383
rradius 28.9657
rwrist -0.0207551
rhand 8.54829 23.2933
rfingers 7.12502
rthumb 33.7482 -3.54603
lclavicle -1.799e-014 5.82439e-014
lhumerus 102.209 20.5694 59.4761
lradius 27.123
lwrist -29.5935
lhand -0.393055 21.0472
lfingers 7.12502
lthumb 25.2138 49.4015
rfemur -32.8909 4.08258 30.9664
rtibia 59.2239
rfoot -3.96919 -0.937369
rtoes 8.94796
lfemur -30.5227 6.56932 -19.7738
ltibia 66.0679
lfoot -12.2466 4.54514
ltoes -32.9161
115
root -12.9663 15.8339 0.202373 97.9767 -84.7139 -137.54
lowerback 17.5303 -1.22056 3.93433
upperback 0.274903 -0.750594 1.62555
thorax -9.59491 -0.536407 -0.271546
lowerneck 6.46612 3.20706 -11.744
upperneck 36.7932 0.180351 6.80227
head 10.8053 -1.97602 4.42675
rclavicle -1.05356e-014 8.74653e-015
rhumerus 100.071 -22.1455 -56.8264
rradius 29.1891
rwrist 0.111158
rhand 9.03599 24.1513
rfingers 7.12502
rthumb 34.2114 -2.58529
lclavicle -1.05356e-014 8.74653e-015
lhumerus 100.686 21.4046 58.9821
lradius 29.2271
lwrist -29.2251
lhand 0.0105514 22.4535
lfingers 7.12502
lthumb 25.6005 50.7528
rfemur -32.9376 3.49682 30.9642
rtibia 60.8706
rfoot -4.14006 -1.05359
rtoes 5.54131
lfemur -30.4352 7.4463 -20.0862
ltibia 68.0642
lfoot -12.3978 5.66337
ltoes -37.5215
116
root -12.7916 15.8027 0.185591 96.4639 -84.6188 -135.075
lowerback 17.1114 -1.33582 3.80684
upperback 0.123942 -0.920667 1.88995
thorax -9.52522 -0.605143 0.12548
lowerneck 6.35437 3.31595 -12.0942
upperneck 37.1086 0.316792 6.79194
head 10.9436 -1.98464 4.50181
rclavicle 7.95139e-016 7.95139e-016
rhumerus 100.513 -21.6284 -57.2667
rradius 29.3934
rwrist 0.536231
rhand 9.50456 25.045
rfingers 7.12502
rthumb 34.6563 -1.59063
lclavicle 7.95139e-016 7.95139e-016
lhumerus 101.227 21.5639 59.6979
lradius 27.9913
lwrist -29.7897
lhand -0.810231 22.225
lfingers 7.12502
lthumb 24.8141 50.6349
rfemur -32.8429 3.00488 31.0395
rtibia 62.5167
rfoot -4.55185 -1.21063
rtoes 0.416436
lfemur -30.3185 8.14799 -20.0201
ltibia 70.1046
lfoot -12.9926 4.78924
ltoes -31.6627
117
root -12.5887 15.8016 0.177686 94.6978 -84.4681 -132.64
lowerback 17.0496 -1.24878 4.25598
upperback 0.0917704 -0.723004 1.80727
thorax -9.52792 -0.53305 -0.26886
lowerneck 5.91915 3.08663 -11.9861
upperneck 37.626 -0.0630287 6.98116
head 11.2782 -2.14825 4.55518
rclavicle -1.53064e-014 4.05521e-014
rhumerus 100.244 -22.2823 -57.1853
rradius 29.7659
rwrist 0.653515
rhand 8.50771 24.0883
rfingers 7.12502
rthumb 33.7096 -2.75949
lclavicle -1.53064e-014 4.05521e-014
lhumerus 101.494 21.0973 60.0198
lradius 28.7504
lwrist -29.5579
lhand -0.932285 23.4813
lfingers 7.12502
lthumb 24.6971 51.9073
rfemur -32.3341 3.52021 31.0538
rtibia 64.2161
rfoot -5.08618 -2.07822
rtoes -1.45169
lfemur -29.634 8.57597 -19.804
ltibia 71.8822
lfoot -13.8337 5.51994
ltoes -31.9871
118
root -12.4088 15.7637 0.163194 92.7193 -84.6402 -129.873
lowerback 16.9474 -1.21692 4.11257
upperback -0.0146417 -0.707114 1.79798
thorax -9.58514 -0.518724 -0.201947
lowerneck 5.69074 3.02127 -12.0861
upperneck 37.9308 -0.204264 7.14263
head 11.4636 -2.22399 4.63999
rclavicle -1.8487e-014 2.64384e-014
rhumerus 99.9062 -22.799 -56.6047
rradius 30.3919
rwrist 0.128825
rhand 7.45641 22.8792
rfingers 7.12502
rthumb 32.71 -4.18176
lclavicle -1.8487e-014 2.64384e-014
lhumerus 101.25 21.2416 59.8653
lradius 29.7106
lwrist -28.98
lhand -1.03892 24.14
lfingers 7.12502
lthumb 24.5949 52.58
rfemur -32.2355 2.26374 30.6994
rtibia 66.1723
rfoot -5.74644 -1.24064
rtoes 2.7571
lfemur -29.0917 8.97936 -20.014
ltibia 73.607
lfoot -13.8722 5.74546
ltoes -31.8624
